# xmcd
#
# Track frame offsets:
# 150
# 14542
# 32804
# 54295
# 70478
# 85507
# 100879
# 118547
# 140708
# 160746
# 176946
# 194962
# 210706
# 233528
# 259136
# 273250
# 291806
# 308210
# 322400
# 338789
#
# Disc length: 4761 seconds
#
#
# Revision: 0
# Processed by: cddbd v1.5.2PL0 Copyright (c) Steve Scherf et al.
# Submitted via: FreeRIP 2.951 
#
DISCID=32129714
DTITLE=enamorados
DYEAR=0072
DGENRE=Pop
TTITLE0=eu
TTITLE1=tu
TTITLE2=ele
TTITLE3=nós
TTITLE4=vós
TTITLE5=eles
TTITLE6=meu
TTITLE7=teu
TTITLE8=seu
TTITLE9=nosso
TTITLE10=vosso
TTITLE11=deles
TTITLE12=me
TTITLE13=mi
TTITLE14=migo
TTITLE15=te
TTITLE16=ti
TTITLE17=tigo
TTITLE18=lhe
TTITLE19=com
EXTD=
EXTT0=
EXTT1=
EXTT2=
EXTT3=
EXTT4=
EXTT5=
EXTT6=
EXTT7=
EXTT8=
EXTT9=
EXTT10=
EXTT11=
EXTT12=
EXTT13=
EXTT14=
EXTT15=
EXTT16=
EXTT17=
EXTT18=
EXTT19=
PLAYORDER=
